<svg width="142" height="100" viewBox="0 0 142 100" fill="none" xmlns="http://www.w3.org/2000/svg">
<path d="M84.6487 47.5552C82.7706 46.5562 81.5316 45.0652 80.9317 43.0823C80.3317 41.0994 80.5313 39.169 81.5303 37.2909C82.5294 35.4128 84.0203 34.1738 86.0032 33.5739C87.9861 32.9739 89.9165 33.1735 91.7946 34.1725C93.6727 35.1715 94.9117 36.6625 95.5117 38.6454C96.1116 40.6283 95.9121 42.5587 94.913 44.4368C93.914 46.3149 92.423 47.5539 90.4401 48.1539C88.4573 48.7538 86.5268 48.5543 84.6487 47.5552ZM105.144 42.2283C103.266 41.2292 102.027 39.7383 101.427 37.7554C100.827 35.7725 101.026 33.842 102.025 31.964C103.024 30.0859 104.515 28.8469 106.498 28.2469C108.481 27.647 110.412 27.8465 112.29 28.8456C114.168 29.8446 115.407 31.3356 116.007 33.3185C116.607 35.3013 116.407 37.2318 115.408 39.1099C114.409 40.988 112.918 42.227 110.935 42.8269C108.952 43.4269 107.022 43.2273 105.144 42.2283ZM123.746 52.124C121.868 51.125 120.629 49.634 120.029 47.6511C119.429 45.6683 119.629 43.7378 120.628 41.8597C121.627 39.9816 123.118 38.7426 125.101 38.1427C127.084 37.5427 129.014 37.7423 130.892 38.7413C132.77 39.7404 134.009 41.2313 134.609 43.2142C135.209 45.1971 135.01 47.1276 134.011 49.0056C133.012 50.8837 131.521 52.1227 129.538 52.7227C127.555 53.3226 125.624 53.1231 123.746 52.124ZM130.783 72.0966C128.905 71.0976 127.666 69.6066 127.066 67.6238C126.466 65.6409 126.666 63.7104 127.665 61.8323C128.664 59.9543 130.155 58.7152 132.138 58.1153C134.121 57.5153 136.051 57.7149 137.929 58.7139C139.807 59.713 141.046 61.2039 141.646 63.1868C142.246 65.1697 142.047 67.1002 141.047 68.9782C140.048 70.8563 138.557 72.0953 136.575 72.6953C134.592 73.2952 132.661 73.0957 130.783 72.0966ZM75.5736 81.869C73.4901 80.7607 72.1946 79.0683 71.6872 76.7919C71.1797 74.5155 71.4926 72.3121 72.626 70.1816C73.7343 68.0981 75.3498 66.5867 77.4724 65.6474C79.595 64.708 81.7714 63.8769 84.0017 63.154C85.6736 62.6432 87.3041 62.0308 88.8931 61.3168C90.4822 60.6028 92.0414 59.8252 93.5708 58.9841C96.1705 57.5666 98.8647 56.3904 101.653 55.4553C104.442 54.5202 107.126 54.7388 109.706 56.111C112.285 57.4832 113.979 59.5934 114.787 62.4417C115.595 65.2899 116.124 68.2128 116.375 71.2104C116.532 72.9488 116.753 74.6574 117.038 76.3361C117.322 78.0149 117.72 79.6902 118.23 81.3621C118.877 83.6156 119.405 85.8849 119.812 88.1701C120.219 90.4552 119.869 92.6395 118.76 94.723C117.627 96.8535 115.975 98.3445 113.803 99.1959C111.632 100.047 109.505 99.9189 107.421 98.8105C104.742 97.3856 102.207 95.7505 99.8156 93.9055C97.4239 92.0604 94.8887 90.4254 92.2099 89.0004C89.5311 87.5754 86.7584 86.3868 83.8918 85.4347C81.0251 84.4826 78.2524 83.294 75.5736 81.869Z" fill="#E8EEF0"/>
<path d="M11.8663 43.9761C9.95952 44.9192 8.02578 45.0562 6.06511 44.3873C4.10443 43.7183 2.65257 42.4304 1.70951 40.5236C0.766457 38.6168 0.629409 36.6831 1.29837 34.7224C1.96733 32.7617 3.25521 31.3099 5.16201 30.3668C7.06881 29.4238 9.00255 29.2867 10.9632 29.9557C12.9239 30.6246 14.3758 31.9125 15.3188 33.8193C16.2619 35.7261 16.3989 37.6599 15.73 39.6205C15.061 41.5812 13.7731 43.0331 11.8663 43.9761ZM19.4909 24.2204C17.5841 25.1635 15.6503 25.3005 13.6897 24.6315C11.729 23.9626 10.2771 22.6747 9.33406 20.7679C8.39101 18.8611 8.25396 16.9274 8.92292 14.9667C9.59188 13.006 10.8798 11.5541 12.7866 10.6111C14.6934 9.66804 16.6271 9.53099 18.5878 10.1999C20.5485 10.8689 22.0003 12.1568 22.9434 14.0636C23.8864 15.9704 24.0235 17.9041 23.3545 19.8648C22.6856 21.8255 21.3977 23.2773 19.4909 24.2204ZM38.3781 14.8793C36.4713 15.8223 34.5375 15.9594 32.5769 15.2904C30.6162 14.6215 29.1643 13.3336 28.2213 11.4268C27.2782 9.51997 27.1412 7.58623 27.8101 5.62556C28.4791 3.66488 29.767 2.21302 31.6738 1.26996C33.5806 0.326904 35.5143 0.189857 37.475 0.858817C39.4356 1.52778 40.8875 2.81566 41.8306 4.72246C42.7736 6.62926 42.9107 8.563 42.2417 10.5237C41.5727 12.4844 40.2849 13.9362 38.3781 14.8793ZM58.7066 20.8101C56.7998 21.7532 54.866 21.8902 52.9053 21.2213C50.9447 20.5523 49.4928 19.2644 48.5497 17.3576C47.6067 15.4508 47.4696 13.5171 48.1386 11.5564C48.8076 9.59573 50.0954 8.14387 52.0022 7.20081C53.909 6.25776 55.8428 6.12071 57.8035 6.78967C59.7641 7.45863 61.216 8.74651 62.1591 10.6533C63.1021 12.5601 63.2392 14.4938 62.5702 16.4545C61.9012 18.4152 60.6134 19.8671 58.7066 20.8101ZM34.4491 71.3589C32.3337 72.4051 30.2035 72.4705 28.0583 71.5553C25.9131 70.64 24.3056 69.1008 23.2358 66.9377C22.1896 64.8223 21.9039 62.6286 22.3786 60.3565C22.8534 58.0844 23.4474 55.8317 24.1607 53.5983C24.7208 51.9423 25.1741 50.2606 25.5208 48.5534C25.8675 46.8461 26.1451 45.126 26.3536 43.393C26.7182 40.4546 27.3338 37.58 28.2004 34.7693C29.067 31.9587 30.8098 29.9057 33.4289 28.6104C36.0479 27.3151 38.7499 27.1698 41.5348 28.1745C44.3197 29.1792 47.0029 30.4536 49.5845 31.9977C51.0884 32.8837 52.6051 33.7007 54.1347 34.4487C55.6643 35.1966 57.2571 35.8506 58.9132 36.4107C61.1211 37.1993 63.272 38.0944 65.3659 39.0961C67.4598 40.0978 69.0298 41.6563 70.076 43.7717C71.1458 45.9348 71.3935 48.1465 70.8189 50.4069C70.2443 52.6673 68.8993 54.3206 66.784 55.3668C64.0642 56.712 61.2576 57.818 58.364 58.6849C55.4704 59.5518 52.6637 60.6578 49.944 62.003C47.2242 63.3481 44.6417 64.9074 42.1965 66.6809C39.7513 68.4544 37.1689 70.0137 34.4491 71.3589Z" fill="#E8EEF0"/>
</svg>
